<svg id="visual" viewBox="0 0 900 600" width="900" height="600" xmlns="http://www.w3.org/2000/svg" xmlns:xlink="http://www.w3.org/1999/xlink" version="1.1"><rect x="0" y="0" width="900" height="600" fill="#ffffff"></rect><g transform="translate(514.0884133660794 276.36761392238316)"><path d="M110 -175.2C145.6 -169.9 179.8 -146.7 184.6 -114.5C189.5 -82.3 165.1 -41.2 152.1 -7.5C139.1 26.2 137.5 52.3 139.8 96.9C142.1 141.5 148.3 204.6 125.7 226.7C103 248.7 51.5 229.9 13 207.4C-25.5 184.8 -51 158.7 -92.3 147.3C-133.6 136 -190.6 139.5 -230 117.4C-269.5 95.3 -291.2 47.7 -304.1 -7.4C-316.9 -62.5 -320.8 -125 -287.4 -157.5C-254 -190 -183.3 -192.4 -129.1 -187C-75 -181.6 -37.5 -168.3 -0.2 -168C37.2 -167.7 74.3 -180.4 110 -175.2" fill="#0d99cd"></path></g></svg>