<svg id="visual" viewBox="0 0 2000 1000" width="2000" height="1000" xmlns="http://www.w3.org/2000/svg" xmlns:xlink="http://www.w3.org/1999/xlink" version="1.1"><rect x="0" y="0" width="2000" height="1000" fill="#fff"></rect><g fill="#259dd4"><circle r="47" cx="520" cy="869"></circle><circle r="9" cx="1557" cy="944"></circle><circle r="9" cx="1153" cy="277"></circle><circle r="9" cx="37" cy="88"></circle><circle r="16" cx="1179" cy="80"></circle><circle r="41" cx="1957" cy="548"></circle><circle r="20" cx="423" cy="779"></circle><circle r="8" cx="19" cy="272"></circle><circle r="22" cx="1797" cy="860"></circle><circle r="22" cx="1125" cy="922"></circle><circle r="10" cx="803" cy="644"></circle><circle r="41" cx="1691" cy="674"></circle><circle r="32" cx="134" cy="724"></circle><circle r="15" cx="1829" cy="243"></circle><circle r="12" cx="1075" cy="56"></circle><circle r="29" cx="74" cy="620"></circle><circle r="39" cx="1294" cy="952"></circle><circle r="20" cx="345" cy="696"></circle><circle r="33" cx="266" cy="907"></circle><circle r="30" cx="189" cy="367"></circle><circle r="18" cx="1862" cy="376"></circle><circle r="35" cx="806" cy="987"></circle><circle r="29" cx="1747" cy="173"></circle><circle r="11" cx="896" cy="234"></circle><circle r="20" cx="552" cy="230"></circle><circle r="39" cx="1530" cy="112"></circle><circle r="20" cx="1018" cy="677"></circle><circle r="18" cx="435" cy="406"></circle><circle r="21" cx="1186" cy="554"></circle><circle r="12" cx="1633" cy="888"></circle><circle r="15" cx="502" cy="674"></circle><circle r="12" cx="1371" cy="823"></circle><circle r="11" cx="111" cy="910"></circle><circle r="17" cx="1145" cy="413"></circle><circle r="35" cx="1617" cy="553"></circle></g></svg>