<svg id="visual" viewBox="0 0 900 600" width="900" height="600" xmlns="http://www.w3.org/2000/svg" xmlns:xlink="http://www.w3.org/1999/xlink" version="1.1"><rect x="0" y="0" width="900" height="600" fill="#ffffff"></rect><g transform="translate(465.04676814067864 329.5922360309969)"><path d="M129.8 -224.2C174 -199.4 219.5 -176.2 248.3 -139.1C277 -102 289 -51 294.1 2.9C299.1 56.8 297.2 113.7 260.4 136.8C223.5 159.9 151.8 149.2 102.6 144.2C53.3 139.3 26.7 139.9 -9.9 157.1C-46.5 174.3 -93 208 -137.5 210.2C-181.9 212.4 -224.3 183.2 -263.6 142.9C-302.8 102.7 -338.9 51.3 -321.9 9.8C-304.8 -31.7 -234.7 -63.3 -189.4 -93.2C-144.2 -123.1 -123.8 -151.2 -96.4 -185.7C-69 -220.2 -34.5 -261.1 4.2 -268.3C42.8 -275.5 85.7 -249 129.8 -224.2" fill="#0d99cd"></path></g></svg>