<svg id="visual" viewBox="0 0 2000 100" width="2000" height="100" xmlns="http://www.w3.org/2000/svg" xmlns:xlink="http://www.w3.org/1999/xlink" version="1.1"><rect x="0" y="0" width="2000" height="100" fill="#259dd4"></rect><path d="M0 0L47.7 7.8C95.3 15.7 190.7 31.3 285.8 31.5C381 31.7 476 16.3 571.2 17.5C666.3 18.7 761.7 36.3 857 39.7C952.3 43 1047.7 32 1143 31.8C1238.3 31.7 1333.7 42.3 1428.8 50.8C1524 59.3 1619 65.7 1714.2 66.7C1809.3 67.7 1904.7 63.3 1952.3 61.2L2000 59L2000 0L1952.3 0C1904.7 0 1809.3 0 1714.2 0C1619 0 1524 0 1428.8 0C1333.7 0 1238.3 0 1143 0C1047.7 0 952.3 0 857 0C761.7 0 666.3 0 571.2 0C476 0 381 0 285.8 0C190.7 0 95.3 0 47.7 0L0 0Z" fill="#FFF" stroke-linecap="round" stroke-linejoin="miter"></path></svg>