<?xml version="1.0" encoding="UTF-8"?>
<svg width="567px" height="476px" viewBox="0 0 567 476" version="1.1" xmlns="http://www.w3.org/2000/svg" xmlns:xlink="http://www.w3.org/1999/xlink">
    <title>图</title>
    <defs>
        <linearGradient x1="61.0286994%" y1="0%" x2="61.0286994%" y2="100%" id="linearGradient-1">
            <stop stop-color="#A0B6CD" offset="0%"></stop>
            <stop stop-color="#B5CCE4" stop-opacity="0" offset="100%"></stop>
        </linearGradient>
        <filter x="-2.3%" y="-22.7%" width="104.7%" height="145.3%" filterUnits="objectBoundingBox" id="filter-2">
            <feGaussianBlur stdDeviation="4" in="SourceGraphic"></feGaussianBlur>
        </filter>
        <linearGradient x1="50%" y1="62.5402951%" x2="50%" y2="90.1039054%" id="linearGradient-3">
            <stop stop-color="#E4B394" offset="0%"></stop>
            <stop stop-color="#EED4C3" offset="100%"></stop>
        </linearGradient>
        <filter x="0.0%" y="0.0%" width="100.0%" height="100.0%" filterUnits="objectBoundingBox" id="filter-4">
            <feGaussianBlur stdDeviation="0" in="SourceGraphic"></feGaussianBlur>
        </filter>
        <path d="M139.2746,75.7942649 C139.2746,77.8074435 139.17408,79.7822027 138.974574,81.7185425 C138.422864,87.1203157 137.133751,92.2070495 135.24612,96.7866467 C134.823322,97.8009199 134.378271,98.7921414 133.903294,99.7526274 C133.733714,100.098402 133.557995,100.444177 133.373836,100.782268 C133.319356,100.889843 133.25797,101.005101 133.197351,101.112676 C127.303493,112.123687 117.658929,119.292754 106.754409,119.292754 C103.371254,119.292754 100.110103,118.601204 97.0407855,117.317995 C88.6615476,113.814142 81.7471417,105.899738 77.7961622,95.6033279 C78.3793326,95.6955346 73.1852214,89.9403025 74.2656792,64.1531747 C74.4191451,57.0839978 75.0414493,49.7766204 77.2429176,45.4198559 C77.9342815,44.04444 78.7246308,42.8150179 79.5986191,41.7085381 C86.0219342,33.5021458 96.8712057,32.2957754 106.754409,32.2957754 C108.074983,32.2957754 109.379444,32.4033498 110.660884,32.6031309 C114.75075,33.2639452 118.60965,34.9313489 122.08642,37.4286125" id="path-5"></path>
        <filter x="-10.0%" y="-7.5%" width="120.0%" height="114.9%" filterUnits="objectBoundingBox" id="filter-6">
            <feGaussianBlur stdDeviation="4.5" in="SourceAlpha" result="shadowBlurInner1"></feGaussianBlur>
            <feOffset dx="-3" dy="-4" in="shadowBlurInner1" result="shadowOffsetInner1"></feOffset>
            <feComposite in="shadowOffsetInner1" in2="SourceAlpha" operator="arithmetic" k2="-1" k3="1" result="shadowInnerInner1"></feComposite>
            <feColorMatrix values="0 0 0 0 0.872084466   0 0 0 0 0.642284337   0 0 0 0 0.496047892  0 0 0 1 0" type="matrix" in="shadowInnerInner1"></feColorMatrix>
        </filter>
        <path d="M2.26807494,242.332085 L57.7575063,147.355389 C61.934848,141.000813 87.7938514,126.808672 94.1396662,130.991013 L76.8110646,143.422007 C89.2433368,151.615336 99.2017388,169.517258 91.2936412,182.065047 C91.1048781,182.364719 90.9007685,182.654401 90.6905202,182.938705 L31.852463,262.262554 C27.6582401,267.944021 19.8521973,269.52767 13.7810865,265.927768 L6.75004643,261.758491 C-0.00859163075,257.752112 -2.05045538,248.90181 2.26807494,242.332085" id="path-7"></path>
        <filter x="-5.3%" y="-3.6%" width="110.6%" height="107.3%" filterUnits="objectBoundingBox" id="filter-8">
            <feGaussianBlur stdDeviation="3" in="SourceAlpha" result="shadowBlurInner1"></feGaussianBlur>
            <feOffset dx="0" dy="4" in="shadowBlurInner1" result="shadowOffsetInner1"></feOffset>
            <feComposite in="shadowOffsetInner1" in2="SourceAlpha" operator="arithmetic" k2="-1" k3="1" result="shadowInnerInner1"></feComposite>
            <feColorMatrix values="0 0 0 0 0.390146857   0 0 0 0 0.490423388   0 0 0 0 0.776211504  0 0 0 1 0" type="matrix" in="shadowInnerInner1"></feColorMatrix>
        </filter>
        <path d="M187.214123,154.598606 C187.423203,154.879706 187.593184,155.197181 187.767368,155.503768 L236.205041,240.934002 C239.688717,247.078039 237.965295,254.864891 232.216463,258.960403 L231.295928,259.616965 C228.661369,262.714379 224.760127,264.705108 220.378487,264.775877 L126.589339,266.290371 L126.524884,262.312422 C126.301591,248.422258 135.259395,245.586135 149.13041,245.361766 L190.558803,238.0408 L161.078919,196.28961 C156.972939,189.888163 147.453933,148.623746 153.846555,144.512866 C166.37014,136.460151 178.167318,142.435521 187.214123,154.598606 Z" id="path-9"></path>
        <filter x="-4.9%" y="-4.4%" width="109.9%" height="108.8%" filterUnits="objectBoundingBox" id="filter-10">
            <feGaussianBlur stdDeviation="3.5" in="SourceAlpha" result="shadowBlurInner1"></feGaussianBlur>
            <feOffset dx="1" dy="-4" in="shadowBlurInner1" result="shadowOffsetInner1"></feOffset>
            <feComposite in="shadowOffsetInner1" in2="SourceAlpha" operator="arithmetic" k2="-1" k3="1" result="shadowInnerInner1"></feComposite>
            <feColorMatrix values="0 0 0 0 0.278048572   0 0 0 0 0.397532622   0 0 0 0 0.645691803  0 0 0 1 0" type="matrix" in="shadowInnerInner1"></feColorMatrix>
        </filter>
        <path d="M170.059245,165.157728 C166.761737,172.859574 166.761737,187.2287 170.059245,208.265107 L165.14143,232.215786 C164.888212,235.626664 165.010984,239.053678 165.502075,242.442272 C146.703874,248.106067 134.406757,251.81112 128.610725,253.557433 C127.713157,253.827865 127.341565,257.329119 126.520803,257.57641 C112.015996,261.946628 90.0962626,267.421158 60.7616012,274 C65.5875921,260.279074 68.0005875,249.084743 68.0005875,240.417007 C68.0005875,225.981853 65.5875921,202.521849 60.7616012,170.036996 C60.7616012,158.780101 62.7075488,141.852496 68.0005875,139.136241 C74.1284807,136.02273 83.9042583,130.564864 94.1404336,127.27616 C95.0144218,136.097264 104.491708,142.305845 113.553102,142.305845 L118.67119,142.305845 C127.556865,142.305845 134.670777,134.936996 134.370751,126.054422 L134.356172,125.662544 C148.774293,128.075285 175.638498,141.061055 182.236764,149.359654 C187.661783,156.175263 175.005508,153.604958 170.059245,165.157728 Z" id="path-11"></path>
        <filter x="-4.5%" y="-3.7%" width="109.0%" height="107.4%" filterUnits="objectBoundingBox" id="filter-12">
            <feGaussianBlur stdDeviation="2" in="SourceAlpha" result="shadowBlurInner1"></feGaussianBlur>
            <feOffset dx="7" dy="-3" in="shadowBlurInner1" result="shadowOffsetInner1"></feOffset>
            <feComposite in="shadowOffsetInner1" in2="SourceAlpha" operator="arithmetic" k2="-1" k3="1" result="shadowInnerInner1"></feComposite>
            <feColorMatrix values="0 0 0 0 0.292888943   0 0 0 0 0.408628639   0 0 0 0 0.644559556  0 0 0 1 0" type="matrix" in="shadowInnerInner1"></feColorMatrix>
        </filter>
        <path d="M75.9698413,95.2189798 C69.7007594,93.4055823 65.0737627,87.0049037 65.0737627,79.374803 C65.0737627,75.6173818 66.201737,72.1596322 68.0893675,69.3934326 C69.6777395,67.0728984 71.8024749,65.2441331 74.2656025,64.153021 C74.173523,68.3407399 74.24335,72.4439361 74.24335,75.7941112 C74.24335,82.9247592 75.5247902,89.6635289 77.7960854,95.6031742 C77.1737812,95.5263354 76.5675909,95.3957093 75.9698413,95.2189798 Z" id="path-13"></path>
        <filter x="-31.4%" y="-12.7%" width="162.9%" height="125.4%" filterUnits="objectBoundingBox" id="filter-14">
            <feGaussianBlur stdDeviation="2" in="SourceAlpha" result="shadowBlurInner1"></feGaussianBlur>
            <feOffset dx="0" dy="4" in="shadowBlurInner1" result="shadowOffsetInner1"></feOffset>
            <feComposite in="shadowOffsetInner1" in2="SourceAlpha" operator="arithmetic" k2="-1" k3="1" result="shadowInnerInner1"></feComposite>
            <feColorMatrix values="0 0 0 0 0.591044207   0 0 0 0 0.785547572   0 0 0 0 1  0 0 0 1 0" type="matrix" in="shadowInnerInner1"></feColorMatrix>
        </filter>
        <path d="M107.892052,105.365246 C107.892052,107.86251 104.298648,109.886446 99.8657857,109.886446 C95.4336907,109.886446 91.8402867,107.86251 91.8402867,105.365246 C91.8402867,102.867983 95.4336907,100.844047 99.8657857,100.844047 C104.298648,100.844047 107.892052,102.867983 107.892052,105.365246" id="path-15"></path>
        <filter x="-12.5%" y="-22.1%" width="124.9%" height="144.2%" filterUnits="objectBoundingBox" id="filter-16">
            <feGaussianBlur stdDeviation="1.5" in="SourceAlpha" result="shadowBlurInner1"></feGaussianBlur>
            <feOffset dx="0" dy="1" in="shadowBlurInner1" result="shadowOffsetInner1"></feOffset>
            <feComposite in="shadowOffsetInner1" in2="SourceAlpha" operator="arithmetic" k2="-1" k3="1" result="shadowInnerInner1"></feComposite>
            <feColorMatrix values="0 0 0 0 0.517797256   0 0 0 0 0.747137586   0 0 0 0 1  0 0 0 1 0" type="matrix" in="shadowInnerInner1"></feColorMatrix>
        </filter>
        <path d="M79.5488194,20.3903594 C79.5488194,20.3903594 147.028541,-29.5164926 145.274426,65.3349566 L148.782656,64.9169531 C148.782656,64.9169531 159.983365,-24.4689466 82.3219482,16.5269006 L79.5488194,20.3903594 Z" id="path-17"></path>
        <filter x="-2.9%" y="-3.4%" width="105.7%" height="106.7%" filterUnits="objectBoundingBox" id="filter-18">
            <feGaussianBlur stdDeviation="1.5" in="SourceAlpha" result="shadowBlurInner1"></feGaussianBlur>
            <feOffset dx="0" dy="1" in="shadowBlurInner1" result="shadowOffsetInner1"></feOffset>
            <feComposite in="shadowOffsetInner1" in2="SourceAlpha" operator="arithmetic" k2="-1" k3="1" result="shadowInnerInner1"></feComposite>
            <feColorMatrix values="0 0 0 0 0.574847561   0 0 0 0 0.777054209   0 0 0 0 1  0 0 0 1 0" type="matrix" in="shadowInnerInner1"></feColorMatrix>
        </filter>
        <linearGradient x1="39.918355%" y1="44.3244965%" x2="26.5624577%" y2="56.8499354%" id="linearGradient-19">
            <stop stop-color="#94B0DB" stop-opacity="0" offset="0%"></stop>
            <stop stop-color="#7B9AD9" stop-opacity="0.182309878" offset="67.1426006%"></stop>
            <stop stop-color="#7B9AD9" offset="100%"></stop>
        </linearGradient>
        <path d="M4.10964411,24.3953863 L20.1684899,108 L20.1684899,108 L169,108 L151.636777,17.6046137 C150.00852,9.12767781 142.591816,3 133.959918,3 L21.7865033,3 C11.8453778,3 3.78650333,11.0588745 3.78650333,21 C3.78650333,22.1394722 3.89470253,23.2763701 4.10964411,24.3953863 Z" id="path-20"></path>
        <filter x="-8.1%" y="-16.7%" width="118.5%" height="133.3%" filterUnits="objectBoundingBox" id="filter-21">
            <feGaussianBlur stdDeviation="11" in="SourceAlpha" result="shadowBlurInner1"></feGaussianBlur>
            <feOffset dx="0" dy="-13" in="shadowBlurInner1" result="shadowOffsetInner1"></feOffset>
            <feComposite in="shadowOffsetInner1" in2="SourceAlpha" operator="arithmetic" k2="-1" k3="1" result="shadowInnerInner1"></feComposite>
            <feColorMatrix values="0 0 0 0 0.851732337   0 0 0 0 0.851732337   0 0 0 0 0.851732337  0 0 0 1 0" type="matrix" in="shadowInnerInner1"></feColorMatrix>
        </filter>
        <path d="M300.225566,80.2849595 C300.225566,89.3189065 293.723984,96.6424201 285.703856,96.6424201 C277.682961,96.6424201 271.181378,89.3189065 271.181378,80.2849595 C271.181378,71.2510125 277.682961,63.9267305 285.703856,63.9267305 C293.723984,63.9267305 300.225566,71.2510125 300.225566,80.2849595" id="path-22"></path>
        <filter x="-18.9%" y="-16.8%" width="137.9%" height="133.6%" filterUnits="objectBoundingBox" id="filter-23">
            <feGaussianBlur stdDeviation="3" in="SourceAlpha" result="shadowBlurInner1"></feGaussianBlur>
            <feOffset dx="0" dy="5" in="shadowBlurInner1" result="shadowOffsetInner1"></feOffset>
            <feComposite in="shadowOffsetInner1" in2="SourceAlpha" operator="arithmetic" k2="-1" k3="1" result="shadowInnerInner1"></feComposite>
            <feColorMatrix values="0 0 0 0 0.557594461   0 0 0 0 0.743168197   0 0 0 0 0.947775136  0 0 0 1 0" type="matrix" in="shadowInnerInner1"></feColorMatrix>
        </filter>
        <rect id="path-24" x="34" y="357" width="468" height="15" rx="7.5"></rect>
        <filter x="-1.5%" y="-46.7%" width="103.0%" height="193.3%" filterUnits="objectBoundingBox" id="filter-25">
            <feGaussianBlur stdDeviation="3" in="SourceAlpha" result="shadowBlurInner1"></feGaussianBlur>
            <feOffset dx="0" dy="8" in="shadowBlurInner1" result="shadowOffsetInner1"></feOffset>
            <feComposite in="shadowOffsetInner1" in2="SourceAlpha" operator="arithmetic" k2="-1" k3="1" result="shadowInnerInner1"></feComposite>
            <feColorMatrix values="0 0 0 0 1   0 0 0 0 1   0 0 0 0 1  0 0 0 0.5 0" type="matrix" in="shadowInnerInner1"></feColorMatrix>
        </filter>
        <path d="M25.4198747,0.502581735 C18.578412,-2.24531223 14.4046896,6.51359979 15.351307,20.9400431 C16.1258122,32.7044642 13.9744089,40.7764027 6.18632876,49.8358656 C-1.60175136,58.8953285 -4.18343538,75.7261791 11.3927249,79.6333408 C26.9688851,83.5405025 32.1752812,71.8619532 29.5505691,53.7430273 C26.9688851,35.6241015 29.8087375,32.7903358 32.4764777,24.0314238 C36.2629476,11.8376443 32.6485899,3.37928323 25.4198747,0.502581735 Z" id="path-26"></path>
        <filter x="-8.8%" y="-3.7%" width="117.6%" height="107.5%" filterUnits="objectBoundingBox" id="filter-27">
            <feGaussianBlur stdDeviation="2" in="SourceAlpha" result="shadowBlurInner1"></feGaussianBlur>
            <feOffset dx="0" dy="2" in="shadowBlurInner1" result="shadowOffsetInner1"></feOffset>
            <feComposite in="shadowOffsetInner1" in2="SourceAlpha" operator="arithmetic" k2="-1" k3="1" result="shadowInnerInner1"></feComposite>
            <feColorMatrix values="0 0 0 0 0.585442073   0 0 0 0 0.723628049   0 0 0 0 1  0 0 0 1 0" type="matrix" in="shadowInnerInner1"></feColorMatrix>
        </filter>
        <path d="M5.13373665,0.00896571328 C14.0042842,-0.369751375 8.63760292,11.3283987 16.0888628,20.1230511 C19.3709654,23.9943813 25.4472905,28.5810661 26.6004616,33.5043882 C28.0197492,39.7321803 24.4271775,45.9599724 17.6855614,48.1901953 C10.4560652,50.5466572 3.09351072,45.8758131 1.31940122,40.5737739 C-0.232944598,35.9029298 1.58551764,32.9573524 2.16210323,29.4226596 C4.37974011,15.6205257 -5.73268406,0.471842155 5.13373665,0.00896571328 Z" id="path-28"></path>
        <filter x="-9.3%" y="-5.1%" width="118.6%" height="110.2%" filterUnits="objectBoundingBox" id="filter-29">
            <feGaussianBlur stdDeviation="1.5" in="SourceAlpha" result="shadowBlurInner1"></feGaussianBlur>
            <feOffset dx="0" dy="2" in="shadowBlurInner1" result="shadowOffsetInner1"></feOffset>
            <feComposite in="shadowOffsetInner1" in2="SourceAlpha" operator="arithmetic" k2="-1" k3="1" result="shadowInnerInner1"></feComposite>
            <feColorMatrix values="0 0 0 0 0.646532012   0 0 0 0 0.817910431   0 0 0 0 1  0 0 0 1 0" type="matrix" in="shadowInnerInner1"></feColorMatrix>
        </filter>
        <path d="M42.9295659,34 L10.1138411,34 L0.764558055,2.57023752 C0.44962457,1.51151627 1.05258369,0.397949089 2.11130493,0.0830156042 C2.29638015,0.0279620366 2.4884525,2.70000531e-15 2.68154245,0 L50.3217375,0 C51.426307,-2.02906125e-16 52.3217375,0.8954305 52.3217375,2 C52.3217375,2.19230367 52.2940027,2.38360216 52.2393896,2.56798792 L42.9295659,34 L42.9295659,34 Z" id="path-30"></path>
        <filter x="-9.1%" y="-16.2%" width="118.2%" height="132.4%" filterUnits="objectBoundingBox" id="filter-31">
            <feGaussianBlur stdDeviation="3.5" in="SourceAlpha" result="shadowBlurInner1"></feGaussianBlur>
            <feOffset dx="0" dy="4" in="shadowBlurInner1" result="shadowOffsetInner1"></feOffset>
            <feComposite in="shadowOffsetInner1" in2="SourceAlpha" operator="arithmetic" k2="-1" k3="1" result="shadowInnerInner1"></feComposite>
            <feColorMatrix values="0 0 0 0 0.554344512   0 0 0 0 0.767887767   0 0 0 0 1  0 0 0 1 0" type="matrix" in="shadowInnerInner1"></feColorMatrix>
        </filter>
        <circle id="path-32" cx="35" cy="35" r="35"></circle>
        <filter x="-22.9%" y="-22.9%" width="157.1%" height="157.1%" filterUnits="objectBoundingBox" id="filter-33">
            <feOffset dx="4" dy="4" in="SourceAlpha" result="shadowOffsetOuter1"></feOffset>
            <feGaussianBlur stdDeviation="6" in="shadowOffsetOuter1" result="shadowBlurOuter1"></feGaussianBlur>
            <feColorMatrix values="0 0 0 0 0.423529412   0 0 0 0 0.525490196   0 0 0 0 0.737254902  0 0 0 0.291712194 0" type="matrix" in="shadowBlurOuter1"></feColorMatrix>
        </filter>
        <filter x="-44.9%" y="-41.7%" width="189.7%" height="183.3%" filterUnits="objectBoundingBox" id="filter-34">
            <feOffset dx="3" dy="3" in="SourceAlpha" result="shadowOffsetOuter1"></feOffset>
            <feGaussianBlur stdDeviation="3" in="shadowOffsetOuter1" result="shadowBlurOuter1"></feGaussianBlur>
            <feColorMatrix values="0 0 0 0 0.815686275   0 0 0 0 0.866666667   0 0 0 0 0.925490196  0 0 0 1 0" type="matrix" in="shadowBlurOuter1" result="shadowMatrixOuter1"></feColorMatrix>
            <feMerge>
                <feMergeNode in="shadowMatrixOuter1"></feMergeNode>
                <feMergeNode in="SourceGraphic"></feMergeNode>
            </feMerge>
        </filter>
        <path d="M33.6818182,0 C36.6189689,0 39,2.35050506 39,5.25 L39,36.75 C39,39.6494949 36.6189689,42 33.6818182,42 L5.31818182,42 C2.3810311,42 0,39.6494949 0,36.75 L0,5.25 C0,2.35050506 2.3810311,0 5.31818182,0 L33.6818182,0 Z" id="path-35"></path>
        <filter x="-11.5%" y="-10.7%" width="123.1%" height="121.4%" filterUnits="objectBoundingBox" id="filter-36">
            <feGaussianBlur stdDeviation="3" in="SourceAlpha" result="shadowBlurInner1"></feGaussianBlur>
            <feOffset dx="0" dy="3" in="shadowBlurInner1" result="shadowOffsetInner1"></feOffset>
            <feComposite in="shadowOffsetInner1" in2="SourceAlpha" operator="arithmetic" k2="-1" k3="1" result="shadowInnerInner1"></feComposite>
            <feColorMatrix values="0 0 0 0 0.588235294   0 0 0 0 0.815686275   0 0 0 0 1  0 0 0 1 0" type="matrix" in="shadowInnerInner1"></feColorMatrix>
        </filter>
        <text id="text-37" font-family="Impact" font-size="12" font-style="condensed" font-weight="700" fill="#FFFFFF">
            <tspan x="7" y="17.5">Sip</tspan>
        </text>
        <filter x="-25.0%" y="-13.3%" width="150.0%" height="153.3%" filterUnits="objectBoundingBox" id="filter-38">
            <feOffset dx="0" dy="2" in="SourceAlpha" result="shadowOffsetOuter1"></feOffset>
            <feGaussianBlur stdDeviation="1" in="shadowOffsetOuter1" result="shadowBlurOuter1"></feGaussianBlur>
            <feColorMatrix values="0 0 0 0 0.423529412   0 0 0 0 0.525490196   0 0 0 0 0.737254902  0 0 0 0.242624563 0" type="matrix" in="shadowBlurOuter1"></feColorMatrix>
        </filter>
        <rect id="path-39" x="7" y="25" width="23" height="3" rx="1.5"></rect>
        <filter x="-17.4%" y="-66.7%" width="134.8%" height="366.7%" filterUnits="objectBoundingBox" id="filter-40">
            <feOffset dx="0" dy="2" in="SourceAlpha" result="shadowOffsetOuter1"></feOffset>
            <feGaussianBlur stdDeviation="1" in="shadowOffsetOuter1" result="shadowBlurOuter1"></feGaussianBlur>
            <feColorMatrix values="0 0 0 0 0.423529412   0 0 0 0 0.525490196   0 0 0 0 0.737254902  0 0 0 0.242624563 0" type="matrix" in="shadowBlurOuter1"></feColorMatrix>
        </filter>
        <rect id="path-41" x="7" y="31" width="15.3333333" height="3" rx="1.5"></rect>
        <filter x="-26.1%" y="-66.7%" width="152.2%" height="366.7%" filterUnits="objectBoundingBox" id="filter-42">
            <feOffset dx="0" dy="2" in="SourceAlpha" result="shadowOffsetOuter1"></feOffset>
            <feGaussianBlur stdDeviation="1" in="shadowOffsetOuter1" result="shadowBlurOuter1"></feGaussianBlur>
            <feColorMatrix values="0 0 0 0 0.423529412   0 0 0 0 0.525490196   0 0 0 0 0.737254902  0 0 0 0.242624563 0" type="matrix" in="shadowBlurOuter1"></feColorMatrix>
        </filter>
        <filter x="-106.5%" y="-106.5%" width="313.0%" height="313.0%" filterUnits="objectBoundingBox" id="filter-43">
            <feOffset dx="3" dy="4" in="SourceAlpha" result="shadowOffsetOuter1"></feOffset>
            <feGaussianBlur stdDeviation="3" in="shadowOffsetOuter1" result="shadowBlurOuter1"></feGaussianBlur>
            <feColorMatrix values="0 0 0 0 0.428162687   0 0 0 0 0.587785317   0 0 0 0 0.765143795  0 0 0 0.49448208 0" type="matrix" in="shadowBlurOuter1" result="shadowMatrixOuter1"></feColorMatrix>
            <feMerge>
                <feMergeNode in="shadowMatrixOuter1"></feMergeNode>
                <feMergeNode in="SourceGraphic"></feMergeNode>
            </feMerge>
        </filter>
        <path d="M14.4852071,18.7826087 L10.1878055,18.7826087 C7.92796502,18.7826087 5.95214819,17.8693722 5.2606123,17.5114822 L3.65526111,17.5114822 C3.05016721,17.5114822 2.54386415,17.0178409 2.54386415,16.4007892 L2.54386415,7.49056272 C2.54386415,6.88585206 3.03781835,6.37986967 3.65526111,6.37986967 L5.35940314,6.37986967 C5.65577568,6.26880037 6.71777722,5.83686419 7.21173142,4.98533284 C7.39696425,4.67680701 7.55749935,3.98570911 7.71803448,3.35631638 C7.9897093,2.24562333 8.24903525,1.19663546 8.85412915,0.579583769 C9.40982763,0.0118962125 10.397736,-0.160878268 11.3239002,0.159988601 C12.5217391,0.567242711 13.3367636,1.62857164 13.5096475,2.99842641 C13.6701827,4.3435991 13.4479033,5.60238456 13.3491124,6.08368485 C13.3244147,6.18241313 13.3738101,6.2441183 13.3985078,6.2811414 C13.4232056,6.3181645 13.4849498,6.36752864 13.5837407,6.36752864 L16.4116285,6.36752864 C17.5106766,6.36752864 18.7826087,7.41651651 18.7826087,8.76168921 C18.7826087,9.3787409 17.8440957,16.5859047 17.2883972,17.4991412 C16.6709545,18.523447 15.1890918,18.7826087 14.4852071,18.7826087 L14.4852071,18.7826087 Z M0.469256491,17.3263667 C0.209930523,17.3263667 0,17.1165691 0,16.8574074 L0,7.24374206 C0,6.98458033 0.209930546,6.77478275 0.469256491,6.77478275 C0.728582436,6.77478275 0.938512983,6.98458033 0.938512983,7.24374206 L0.938512983,16.8574074 C0.938512983,17.1165692 0.728582436,17.3263667 0.469256491,17.3263667 Z" id="path-44"></path>
        <filter x="-29.3%" y="-29.3%" width="158.6%" height="158.6%" filterUnits="objectBoundingBox" id="filter-45">
            <feGaussianBlur stdDeviation="2.5" in="SourceAlpha" result="shadowBlurInner1"></feGaussianBlur>
            <feOffset dx="0" dy="6" in="shadowBlurInner1" result="shadowOffsetInner1"></feOffset>
            <feComposite in="shadowOffsetInner1" in2="SourceAlpha" operator="arithmetic" k2="-1" k3="1" result="shadowInnerInner1"></feComposite>
            <feColorMatrix values="0 0 0 0 0.55234375   0 0 0 0 0.797938378   0 0 0 0 1  0 0 0 1 0" type="matrix" in="shadowInnerInner1"></feColorMatrix>
        </filter>
    </defs>
    <g id="官网B" stroke="none" stroke-width="1" fill="none" fill-rule="evenodd" opacity="0.900000036">
        <g id="人工坐席-B" transform="translate(-800.000000, -99.000000)">
            <g id="图" transform="translate(800.000000, 99.500000)">
                <polyline id="范围" points="0 0 536 0 536 475 0 475 279.365792 170.874957"></polyline>
                <polygon id="路径-16" fill="url(#linearGradient-1)" filter="url(#filter-2)" points="38 372 490.59375 372 554.125 424.949219 144 424.949219"></polygon>
                <g id="编组" transform="translate(52.000000, 91.500000)">
                    <g id="人" transform="translate(142.000000, 0.000000)">
                        <path d="M74.2434267,75.7942649 C74.2434267,72.4440897 74.1735997,68.3408936 74.2656792,64.1531747 C75.916205,63.4155214 77.7117559,63.0159593 79.5917132,63.0159593 C87.6103062,63.0159593 94.1164929,70.3387044 94.1164929,79.3749566 C94.1164929,88.4112088 87.6103062,95.733954 79.5917132,95.733954 C78.9855229,95.733954 78.3793326,95.6955346 77.7961622,95.6033279 C75.5248669,89.6636826 74.2434267,82.9249129 74.2434267,75.7942649 M155.27342,111.186253 C147.884037,106.107203 141.392429,102.142317 138.737469,98.2850048 C137.233504,96.0950967 136.964171,93.9436081 138.453558,91.6461256 C138.775836,91.1466729 139.090441,90.5089102 139.382026,89.771257 C142.811222,81.1115153 144.154048,57.7371283 143.502586,57.1147333 C142.796642,56.4308673 132.129995,41.6624347 132.129995,41.6624347 L122.08642,37.4286125 L110.660884,32.6031309 L87.4330531,22.8061738 L77.9104943,39.1651712 C77.9104943,39.1651712 57.7151497,25.9873034 64.0678705,72.1059987 C70.4221259,118.224694 56.5787347,115.950263 56.5787347,115.950263 L58.3980729,137.772505 L70.4221259,144.641901 L92.1222036,149.874628 L122.001246,157.074431 L147.33156,157.074431 L162.302158,142.490412 L163.214513,133.899825 C163.214513,133.899825 166.844748,119.131393 155.27342,111.186253" id="Fill-1" fill="#050101"></path>
                        <path d="M94.1400499,127.276314 C94.1400499,127.276314 95.8596353,139.869438 108.891192,141.769663 C121.921214,143.670657 133.631429,142.41511 134.355788,125.662697 C134.355788,125.662697 132.047661,120.594405 132.641574,115.736651 C133.235487,110.878897 123.736715,115.736651 123.736715,115.736651 C123.736715,115.736651 108.604211,118.087921 106.754179,119.292754 C104.905683,120.49682 96.0276804,119.438748 96.0276804,119.438748 L94.1400499,127.276314 Z" id="Fill-3" fill="#EED4C3"></path>
                        <path d="M133.23564,110.879051 C132.915935,114.178862 132.150053,118.227479 132.713089,121.376202 C133.70351,126.915037 135.795856,130.773738 130.130709,130.773738 L113.692399,131.454316 C107.44557,131.454316 98.3210568,129.822968 94.6309693,125.089693 C94.8458216,123.814167 96.3501123,116.872483 96.3501123,115.573906 C96.3501123,114.582685 96.6340242,113.637567 97.1481349,112.830758 C97.6545724,112.02395 98.3912087,111.363136 99.2966575,110.940522 L132.713089,95.3345455 L133.23564,110.879051 Z" id="Fill-5" fill="url(#linearGradient-3)" filter="url(#filter-4)"></path>
                        <g id="Fill-7">
                            <use fill="#ECCFBC" fill-rule="evenodd" xlink:href="#path-5"></use>
                            <use fill="black" fill-opacity="1" filter="url(#filter-6)" xlink:href="#path-5"></use>
                        </g>
                        <path d="M75.7479296,96.4866677 C75.8254299,96.2899601 75.8906529,96.0878739 75.9205787,95.8788721 C76.8912505,89.0709474 66.3374009,65.2900827 66.3374009,65.2900827 C66.3374009,65.2900827 55.3814705,42.058616 75.6934492,39.3415932 C76.731646,39.2025149 77.7698428,39.6136029 78.448162,40.4134956 C81.6064902,44.1378761 92.5862077,55.387088 115.56926,63.2454002 C143.474731,72.7872522 139.151597,83.6922259 139.271301,93.9156388 C139.333454,99.244415 137.716691,100.499962 136.153641,100.479984 C134.507719,100.460006 133.148011,101.757046 133.046724,103.402167 C132.60244,110.651915 132.011596,125.179842 134.37804,125.666232 C137.354512,126.27787 153.080162,192.592896 154.878015,200.211471 C154.989278,200.681725 155.203363,201.109717 155.511829,201.481617 C157.864461,204.302373 168.290934,216.877824 168.092196,217.845225 C167.868136,218.9348 173.847934,226.134603 183.277646,217.845225 C191.287031,210.80371 205.015323,199.112675 208.96707,195.752511 C209.663038,195.160851 210.059747,194.295645 210.059747,193.382031 C210.059747,191.992784 210.975171,190.770278 212.310324,190.391462 C219.25082,188.422081 239.525199,180.095052 233.816268,150.94315 C233.787109,150.791777 233.748743,150.635794 233.700401,150.4898 C231.046976,142.561565 218.759729,146.391983 214.7136,121.406285 C210.467199,95.1796383 220.123273,79.4338152 186.314736,71.9197412 C186.191964,71.8928476 186.066122,71.8590385 185.947186,71.8190823 C172.435281,67.2210438 172.630182,41.6498332 172.727633,38.0053651 C172.736074,37.6918625 172.69694,37.380665 172.610232,37.0794566 C171.623446,33.6647368 164.532554,13.3823463 132.811154,2.58648378 C101.433517,-8.09258365 81.5497078,17.4279133 78.0192249,22.4293559 C77.7360803,22.8312233 77.5296687,23.2876462 77.4790249,23.7771099 C77.3263263,25.2685525 75.2591407,29.6406847 57.0358329,32.2931629 C35.8705839,35.3728651 54.9985731,67.2225805 56.8877383,70.2799995 C56.9966991,70.4551922 57.0834073,70.6334584 57.154769,70.826324 C58.1008862,73.389669 63.9686548,91.3000433 48.4133515,104.13982 C38.6582919,111.863664 51.1366039,135.946506 51.1366039,135.946506 C51.1366039,135.946506 53.1777003,140.262546 45.6908665,150.031841 C39.4187154,158.216718 42.9515003,171.504465 44.262099,175.599209 C44.5145504,176.386808 45.0670277,177.036096 45.8021293,177.413375 L143.473197,227.600689 C144.200625,227.974894 145.04699,228.046355 145.826596,227.80047 L163.794054,220.775174 C159.798947,220.539888 168.083384,220.514604 166.205729,218.934028 C167.203002,218.674708 167.667629,218.514624 167.599609,218.453776 C146.921257,199.955509 115.965893,172.218471 74.73352,135.242662 C74.3774791,134.94299 74.0897306,134.568016 73.9009675,134.14156 C72.5312844,131.050332 67.5728013,117.396832 75.7479296,96.4866677 Z" id="Fill-9" fill="#1F2539"></path>
                        <g id="Fill-11">
                            <use fill="#455C9D" fill-rule="evenodd" xlink:href="#path-7"></use>
                            <use fill="black" fill-opacity="1" filter="url(#filter-8)" xlink:href="#path-7"></use>
                        </g>
                        <g id="形状结合">
                            <use fill="#5A77B2" fill-rule="evenodd" xlink:href="#path-9"></use>
                            <use fill="black" fill-opacity="1" filter="url(#filter-10)" xlink:href="#path-9"></use>
                        </g>
                        <g id="Fill-13">
                            <use fill="#5B78B4" fill-rule="evenodd" xlink:href="#path-11"></use>
                            <use fill="black" fill-opacity="1" filter="url(#filter-12)" xlink:href="#path-11"></use>
                        </g>
                        <g id="Fill-17">
                            <use fill="#76A1D1" fill-rule="evenodd" xlink:href="#path-13"></use>
                            <use fill="black" fill-opacity="1" filter="url(#filter-14)" xlink:href="#path-13"></use>
                        </g>
                        <path d="M137.122471,95.052009 C137.122471,95.052009 121.516524,110.955352 106.745432,106.411869" id="Stroke-19" stroke="#76A1D1" stroke-width="4"></path>
                        <g id="Fill-21">
                            <use fill="#76A1D1" fill-rule="evenodd" xlink:href="#path-15"></use>
                            <use fill="black" fill-opacity="1" filter="url(#filter-16)" xlink:href="#path-15"></use>
                        </g>
                        <g id="Fill-23">
                            <use fill="#76A1D1" fill-rule="evenodd" xlink:href="#path-17"></use>
                            <use fill="black" fill-opacity="1" filter="url(#filter-18)" xlink:href="#path-17"></use>
                        </g>
                        <path d="M122.453357,252.49372 C122.453357,252.49372 115.403133,254.948722 113.103447,252.49372 C110.804528,250.037949 88.8865286,247.735856 86.5876095,249.424007 C84.287923,251.112157 80.6093455,248.810064 66.967762,265.693871 L128.124689,266.307813 C128.124689,266.307813 131.037472,255.563433 122.453357,252.49372" id="Fill-25" fill="#EED4C3"></path>
                        <path d="M66.9555664,139.628906 C66.9555664,139.628906 62.8813624,141.86485 62.4531226,149.242916 C62.2017204,153.57428 62.6304786,159.717745 60.3467936,163.806083 C48.2509066,185.460592 33.9483337,219.964446 60.8845274,226.67286 C60.8845274,226.67286 68.6652483,231.867168 65.2068943,254.808952 C61.7485404,277.749968 129.181455,239.65863 129.181455,239.65863 L117.943147,209.792126 C117.943147,209.792126 103.246486,169.102866 103.246486,167.804289 L79.5152939,133.280913 L66.9555664,139.628906 Z" id="Fill-31" fill="#5B78B4"></path>
                        <path d="M65.2068943,142.435521 C65.2068943,142.435521 66.3073942,153.198203 60.6165465,163.324626 C48.4661385,184.945334 33.7478115,219.914507 60.8845274,226.67286 C60.8845274,226.67286 68.6652483,231.867168 65.2068943,254.808952 C61.7485404,277.749968 129.181455,239.65863 129.181455,239.65863 L117.943147,209.792126 C117.943147,209.792126 103.246486,169.102866 103.246486,167.804289 L68.9072266,142.91333 L65.2068943,142.435521 Z" id="Fill-31" fill="url(#linearGradient-19)" opacity="0.354015262"></path>
                    </g>
                    <g transform="translate(0.000000, 158.000000)">
                        <path d="M4.25038085,21.4921269 L20.7652779,105 L20.7652779,105 C87.7848258,106.666667 137.674214,107.5 170.433443,107.5 C203.192673,107.5 204.381525,106.666667 174,105 L156.104593,14.5080049 C154.437192,6.07643053 147.041428,-1.57885074e-15 138.446564,0 L21.9083833,0 C11.9672578,5.37886881e-15 3.90838327,8.0588745 3.90838327,18 C3.90838327,19.1724023 4.02292655,20.3420002 4.25038085,21.4921269 Z" id="Fill-1" fill="#FFFFFF"></path>
                        <g id="Fill-2">
                            <use fill="#FFFFFF" fill-rule="evenodd" xlink:href="#path-20"></use>
                            <use fill="black" fill-opacity="1" filter="url(#filter-21)" xlink:href="#path-20"></use>
                        </g>
                        <path d="M169,108 L239,108 L208.967762,107.5 L212.423886,104.158693 C219.461344,103.602379 225.463092,102.549482 230.429128,101 C235.395164,99.4505184 240.246173,97.1171851 244.982155,94 L169,94 L169,108 Z" id="Fill-3" fill="#FFFFFF"></path>
                    </g>
                    <g id="Fill-33">
                        <use fill="#76A1D1" fill-rule="evenodd" xlink:href="#path-22"></use>
                        <use fill="black" fill-opacity="1" filter="url(#filter-23)" xlink:href="#path-22"></use>
                    </g>
                </g>
                <ellipse id="椭圆形" fill="#EAEAEA" transform="translate(131.779989, 303.797379) rotate(39.000000) translate(-131.779989, -303.797379) " cx="131.779989" cy="303.797379" rx="12" ry="8"></ellipse>
                <g id="矩形">
                    <use fill="#ECEEF3" fill-rule="evenodd" xlink:href="#path-24"></use>
                    <use fill="black" fill-opacity="1" filter="url(#filter-25)" xlink:href="#path-24"></use>
                </g>
                <g id="编组-18" transform="translate(437.000000, 237.500000)" fill-rule="nonzero">
                    <g id="r_leaf" transform="translate(21.000000, 0.000000)">
                        <g id="Path">
                            <use fill="#6C86BC" xlink:href="#path-26"></use>
                            <use fill="black" fill-opacity="1" filter="url(#filter-27)" xlink:href="#path-26"></use>
                        </g>
                        <path d="M13.2429317,116 C12.9417353,116 12.6835669,115.785321 12.5975107,115.48477 C5.92816036,83.1540799 15.351307,57.4784457 15.4803912,57.2208306 C15.6094754,56.8773439 15.996728,56.7056005 16.2979245,56.834408 C16.642149,56.9632156 16.8142613,57.3496382 16.6851771,57.6501891 C16.599121,57.9078041 7.26203043,83.2828875 13.8883527,115.227155 C13.9744089,115.570642 13.7162405,115.914128 13.3720159,116 C13.3289879,116 13.2859598,116 13.2429317,116 Z" id="Path" fill="#E9ECF2"></path>
                    </g>
                    <g id="l_leaf" transform="translate(0.000000, 27.000000)">
                        <g id="Path">
                            <use fill="#9BBBDD" xlink:href="#path-28"></use>
                            <use fill="black" fill-opacity="1" filter="url(#filter-29)" xlink:href="#path-28"></use>
                        </g>
                        <path d="M33.297725,84 C33.0759613,84 32.8985504,83.9158406 32.7654922,83.7475219 C17.1533285,63.2126398 13.3389931,36.6182843 13.2946404,36.3237265 C13.2502876,35.9870891 13.5164041,35.6504517 13.871226,35.608372 C14.2260479,35.5662924 14.5808698,35.8187704 14.6252225,36.1554078 C14.6695752,36.4078859 18.4395579,62.7497634 33.8743106,82.9900878 C34.0960743,83.2846455 34.0073688,83.6633626 33.7412524,83.873761 C33.5638414,83.9579203 33.4307832,84 33.297725,84 Z" id="Path" fill="#E9ECF2"></path>
                    </g>
                    <g id="Path" transform="translate(0.000000, 85.000000)">
                        <use fill="#7AA8DA" xlink:href="#path-30"></use>
                        <use fill="black" fill-opacity="1" filter="url(#filter-31)" xlink:href="#path-30"></use>
                    </g>
                </g>
                <g id="编组-34" transform="translate(62.000000, 210.000000)">
                    <g id="椭圆形">
                        <use fill="black" fill-opacity="1" filter="url(#filter-33)" xlink:href="#path-32"></use>
                        <use fill="#FFFFFF" fill-rule="evenodd" xlink:href="#path-32"></use>
                    </g>
                    <g id="用户协议" filter="url(#filter-34)" transform="translate(16.000000, 14.000000)">
                        <g id="形状" fill-rule="nonzero">
                            <use fill="#8ABAEB" xlink:href="#path-35"></use>
                            <use fill="black" fill-opacity="1" filter="url(#filter-36)" xlink:href="#path-35"></use>
                        </g>
                        <g id="Sip" fill="#FFFFFF" fill-opacity="1">
                            <use filter="url(#filter-38)" xlink:href="#text-37"></use>
                            <use xlink:href="#text-37"></use>
                        </g>
                        <g id="矩形">
                            <use fill="black" fill-opacity="1" filter="url(#filter-40)" xlink:href="#path-39"></use>
                            <use fill="#FFFFFF" fill-rule="evenodd" xlink:href="#path-39"></use>
                        </g>
                        <g id="矩形">
                            <use fill="black" fill-opacity="1" filter="url(#filter-42)" xlink:href="#path-41"></use>
                            <use fill="#FFFFFF" fill-rule="evenodd" xlink:href="#path-41"></use>
                        </g>
                    </g>
                </g>
                <g id="编组-28" transform="translate(132.000000, 154.500000)">
                    <circle id="椭圆形" fill="#FFFFFF" cx="16" cy="16" r="16"></circle>
                    <g id="赞" filter="url(#filter-43)" transform="translate(6.260870, 6.956522)" fill-rule="nonzero">
                        <g id="形状">
                            <use fill="#78A9DF" xlink:href="#path-44"></use>
                            <use fill="black" fill-opacity="1" filter="url(#filter-45)" xlink:href="#path-44"></use>
                        </g>
                    </g>
                </g>
            </g>
        </g>
    </g>
</svg>